<svg id="visual" viewBox="0 0 900 600" width="900" height="600" xmlns="http://www.w3.org/2000/svg" xmlns:xlink="http://www.w3.org/1999/xlink" version="1.1"><rect x="0" y="0" width="900" height="600" fill="#001220"></rect><path d="M0 408L21.5 413.7C43 419.3 86 430.7 128.8 434.8C171.7 439 214.3 436 257.2 442C300 448 343 463 385.8 463.5C428.7 464 471.3 450 514.2 442.5C557 435 600 434 642.8 438C685.7 442 728.3 451 771.2 455.7C814 460.3 857 460.7 878.5 460.8L900 461L900 601L878.5 601C857 601 814 601 771.2 601C728.3 601 685.7 601 642.8 601C600 601 557 601 514.2 601C471.3 601 428.7 601 385.8 601C343 601 300 601 257.2 601C214.3 601 171.7 601 128.8 601C86 601 43 601 21.5 601L0 601Z" fill="#f9bc50"></path><path d="M0 487L21.5 489.7C43 492.3 86 497.7 128.8 491C171.7 484.3 214.3 465.7 257.2 460.3C300 455 343 463 385.8 467.8C428.7 472.7 471.3 474.3 514.2 474.3C557 474.3 600 472.7 642.8 477.7C685.7 482.7 728.3 494.3 771.2 500.2C814 506 857 506 878.5 506L900 506L900 601L878.5 601C857 601 814 601 771.2 601C728.3 601 685.7 601 642.8 601C600 601 557 601 514.2 601C471.3 601 428.7 601 385.8 601C343 601 300 601 257.2 601C214.3 601 171.7 601 128.8 601C86 601 43 601 21.5 601L0 601Z" fill="#fea951"></path><path d="M0 534L21.5 524.8C43 515.7 86 497.3 128.8 492.8C171.7 488.3 214.3 497.7 257.2 498.8C300 500 343 493 385.8 492.8C428.7 492.7 471.3 499.3 514.2 498.7C557 498 600 490 642.8 489.5C685.7 489 728.3 496 771.2 500.7C814 505.3 857 507.7 878.5 508.8L900 510L900 601L878.5 601C857 601 814 601 771.2 601C728.3 601 685.7 601 642.8 601C600 601 557 601 514.2 601C471.3 601 428.7 601 385.8 601C343 601 300 601 257.2 601C214.3 601 171.7 601 128.8 601C86 601 43 601 21.5 601L0 601Z" fill="#ff9656"></path><path d="M0 514L21.5 515.5C43 517 86 520 128.8 519.3C171.7 518.7 214.3 514.3 257.2 514.7C300 515 343 520 385.8 519.3C428.7 518.7 471.3 512.3 514.2 512.2C557 512 600 518 642.8 522.5C685.7 527 728.3 530 771.2 534.3C814 538.7 857 544.3 878.5 547.2L900 550L900 601L878.5 601C857 601 814 601 771.2 601C728.3 601 685.7 601 642.8 601C600 601 557 601 514.2 601C471.3 601 428.7 601 385.8 601C343 601 300 601 257.2 601C214.3 601 171.7 601 128.8 601C86 601 43 601 21.5 601L0 601Z" fill="#fe835e"></path><path d="M0 540L21.5 543.3C43 546.7 86 553.3 128.8 558.5C171.7 563.7 214.3 567.3 257.2 566.2C300 565 343 559 385.8 556C428.7 553 471.3 553 514.2 553.7C557 554.3 600 555.7 642.8 554.3C685.7 553 728.3 549 771.2 547.2C814 545.3 857 545.7 878.5 545.8L900 546L900 601L878.5 601C857 601 814 601 771.2 601C728.3 601 685.7 601 642.8 601C600 601 557 601 514.2 601C471.3 601 428.7 601 385.8 601C343 601 300 601 257.2 601C214.3 601 171.7 601 128.8 601C86 601 43 601 21.5 601L0 601Z" fill="#fa7268"></path></svg>