<svg id="visual" viewBox="0 0 900 600" width="900" height="600" xmlns="http://www.w3.org/2000/svg" xmlns:xlink="http://www.w3.org/1999/xlink" version="1.1"><rect x="0" y="0" width="900" height="600" fill="#001220"></rect><path d="M0 477L21.5 474.3C43 471.7 86 466.3 128.8 456.2C171.7 446 214.3 431 257.2 429.7C300 428.3 343 440.7 385.8 444.7C428.7 448.7 471.3 444.3 514.2 448.7C557 453 600 466 642.8 466.2C685.7 466.3 728.3 453.7 771.2 454C814 454.3 857 467.7 878.5 474.3L900 481L900 601L878.5 601C857 601 814 601 771.2 601C728.3 601 685.7 601 642.8 601C600 601 557 601 514.2 601C471.3 601 428.7 601 385.8 601C343 601 300 601 257.2 601C214.3 601 171.7 601 128.8 601C86 601 43 601 21.5 601L0 601Z" fill="#f9bc50"></path><path d="M0 444L21.5 444.5C43 445 86 446 128.8 455.8C171.7 465.7 214.3 484.3 257.2 488.7C300 493 343 483 385.8 477.5C428.7 472 471.3 471 514.2 465.8C557 460.7 600 451.3 642.8 454.2C685.7 457 728.3 472 771.2 483.7C814 495.3 857 503.7 878.5 507.8L900 512L900 601L878.5 601C857 601 814 601 771.2 601C728.3 601 685.7 601 642.8 601C600 601 557 601 514.2 601C471.3 601 428.7 601 385.8 601C343 601 300 601 257.2 601C214.3 601 171.7 601 128.8 601C86 601 43 601 21.5 601L0 601Z" fill="#fea951"></path><path d="M0 523L21.5 520C43 517 86 511 128.8 504.3C171.7 497.7 214.3 490.3 257.2 492.3C300 494.3 343 505.7 385.8 506.7C428.7 507.7 471.3 498.3 514.2 492.2C557 486 600 483 642.8 480.8C685.7 478.7 728.3 477.3 771.2 480.8C814 484.3 857 492.7 878.5 496.8L900 501L900 601L878.5 601C857 601 814 601 771.2 601C728.3 601 685.7 601 642.8 601C600 601 557 601 514.2 601C471.3 601 428.7 601 385.8 601C343 601 300 601 257.2 601C214.3 601 171.7 601 128.8 601C86 601 43 601 21.5 601L0 601Z" fill="#ff9656"></path><path d="M0 555L21.5 547.7C43 540.3 86 525.7 128.8 520.5C171.7 515.3 214.3 519.7 257.2 526.7C300 533.7 343 543.3 385.8 542.7C428.7 542 471.3 531 514.2 531.2C557 531.3 600 542.7 642.8 542.8C685.7 543 728.3 532 771.2 530.8C814 529.7 857 538.3 878.5 542.7L900 547L900 601L878.5 601C857 601 814 601 771.2 601C728.3 601 685.7 601 642.8 601C600 601 557 601 514.2 601C471.3 601 428.7 601 385.8 601C343 601 300 601 257.2 601C214.3 601 171.7 601 128.8 601C86 601 43 601 21.5 601L0 601Z" fill="#fe835e"></path><path d="M0 543L21.5 544.5C43 546 86 549 128.8 554.2C171.7 559.3 214.3 566.7 257.2 567.2C300 567.7 343 561.3 385.8 560.5C428.7 559.7 471.3 564.3 514.2 564.3C557 564.3 600 559.7 642.8 557.3C685.7 555 728.3 555 771.2 555.8C814 556.7 857 558.3 878.5 559.2L900 560L900 601L878.5 601C857 601 814 601 771.2 601C728.3 601 685.7 601 642.8 601C600 601 557 601 514.2 601C471.3 601 428.7 601 385.8 601C343 601 300 601 257.2 601C214.3 601 171.7 601 128.8 601C86 601 43 601 21.5 601L0 601Z" fill="#fa7268"></path></svg>