<svg id="visual" viewBox="0 0 900 600" width="900" height="600" xmlns="http://www.w3.org/2000/svg" xmlns:xlink="http://www.w3.org/1999/xlink" version="1.1"><rect x="0" y="0" width="900" height="600" fill="#001220"></rect><path d="M0 420L21.5 419.3C43 418.7 86 417.3 128.8 426.3C171.7 435.3 214.3 454.7 257.2 461C300 467.3 343 460.7 385.8 451.3C428.7 442 471.3 430 514.2 425.8C557 421.7 600 425.3 642.8 430C685.7 434.7 728.3 440.3 771.2 437.3C814 434.3 857 422.7 878.5 416.8L900 411L900 601L878.5 601C857 601 814 601 771.2 601C728.3 601 685.7 601 642.8 601C600 601 557 601 514.2 601C471.3 601 428.7 601 385.8 601C343 601 300 601 257.2 601C214.3 601 171.7 601 128.8 601C86 601 43 601 21.5 601L0 601Z" fill="#f9bc50"></path><path d="M0 467L21.5 471.7C43 476.3 86 485.7 128.8 488.5C171.7 491.3 214.3 487.7 257.2 488.3C300 489 343 494 385.8 487.8C428.7 481.7 471.3 464.3 514.2 461C557 457.7 600 468.3 642.8 479C685.7 489.7 728.3 500.3 771.2 499.8C814 499.3 857 487.7 878.5 481.8L900 476L900 601L878.5 601C857 601 814 601 771.2 601C728.3 601 685.7 601 642.8 601C600 601 557 601 514.2 601C471.3 601 428.7 601 385.8 601C343 601 300 601 257.2 601C214.3 601 171.7 601 128.8 601C86 601 43 601 21.5 601L0 601Z" fill="#fea951"></path><path d="M0 472L21.5 475.2C43 478.3 86 484.7 128.8 487C171.7 489.3 214.3 487.7 257.2 490.7C300 493.7 343 501.3 385.8 502.8C428.7 504.3 471.3 499.7 514.2 503.8C557 508 600 521 642.8 520.3C685.7 519.7 728.3 505.3 771.2 501.3C814 497.3 857 503.7 878.5 506.8L900 510L900 601L878.5 601C857 601 814 601 771.2 601C728.3 601 685.7 601 642.8 601C600 601 557 601 514.2 601C471.3 601 428.7 601 385.8 601C343 601 300 601 257.2 601C214.3 601 171.7 601 128.8 601C86 601 43 601 21.5 601L0 601Z" fill="#ff9656"></path><path d="M0 522L21.5 523.7C43 525.3 86 528.7 128.8 530.7C171.7 532.7 214.3 533.3 257.2 534.8C300 536.3 343 538.7 385.8 538.7C428.7 538.7 471.3 536.3 514.2 534.7C557 533 600 532 642.8 535.3C685.7 538.7 728.3 546.3 771.2 544.5C814 542.7 857 531.3 878.5 525.7L900 520L900 601L878.5 601C857 601 814 601 771.2 601C728.3 601 685.7 601 642.8 601C600 601 557 601 514.2 601C471.3 601 428.7 601 385.8 601C343 601 300 601 257.2 601C214.3 601 171.7 601 128.8 601C86 601 43 601 21.5 601L0 601Z" fill="#fe835e"></path><path d="M0 568L21.5 567C43 566 86 564 128.8 559.2C171.7 554.3 214.3 546.7 257.2 546C300 545.3 343 551.7 385.8 554C428.7 556.3 471.3 554.7 514.2 554.8C557 555 600 557 642.8 556.7C685.7 556.3 728.3 553.7 771.2 555.8C814 558 857 565 878.5 568.5L900 572L900 601L878.5 601C857 601 814 601 771.2 601C728.3 601 685.7 601 642.8 601C600 601 557 601 514.2 601C471.3 601 428.7 601 385.8 601C343 601 300 601 257.2 601C214.3 601 171.7 601 128.8 601C86 601 43 601 21.5 601L0 601Z" fill="#fa7268"></path></svg>