<svg id="visual" viewBox="0 0 900 600" width="900" height="600" xmlns="http://www.w3.org/2000/svg" xmlns:xlink="http://www.w3.org/1999/xlink" version="1.1"><rect x="0" y="0" width="900" height="600" fill="#001220"></rect><path d="M0 474L21.5 468.8C43 463.7 86 453.3 128.8 444.2C171.7 435 214.3 427 257.2 434.7C300 442.3 343 465.7 385.8 463.7C428.7 461.7 471.3 434.3 514.2 422.7C557 411 600 415 642.8 418.5C685.7 422 728.3 425 771.2 435.5C814 446 857 464 878.5 473L900 482L900 601L878.5 601C857 601 814 601 771.2 601C728.3 601 685.7 601 642.8 601C600 601 557 601 514.2 601C471.3 601 428.7 601 385.8 601C343 601 300 601 257.2 601C214.3 601 171.7 601 128.8 601C86 601 43 601 21.5 601L0 601Z" fill="#f9bc50"></path><path d="M0 466L21.5 465.3C43 464.7 86 463.3 128.8 463.7C171.7 464 214.3 466 257.2 464.7C300 463.3 343 458.7 385.8 460.5C428.7 462.3 471.3 470.7 514.2 469.8C557 469 600 459 642.8 452.7C685.7 446.3 728.3 443.7 771.2 442.3C814 441 857 441 878.5 441L900 441L900 601L878.5 601C857 601 814 601 771.2 601C728.3 601 685.7 601 642.8 601C600 601 557 601 514.2 601C471.3 601 428.7 601 385.8 601C343 601 300 601 257.2 601C214.3 601 171.7 601 128.8 601C86 601 43 601 21.5 601L0 601Z" fill="#fea951"></path><path d="M0 494L21.5 499C43 504 86 514 128.8 515.5C171.7 517 214.3 510 257.2 504.2C300 498.3 343 493.7 385.8 496.2C428.7 498.7 471.3 508.3 514.2 508.3C557 508.3 600 498.7 642.8 495.2C685.7 491.7 728.3 494.3 771.2 492.8C814 491.3 857 485.7 878.5 482.8L900 480L900 601L878.5 601C857 601 814 601 771.2 601C728.3 601 685.7 601 642.8 601C600 601 557 601 514.2 601C471.3 601 428.7 601 385.8 601C343 601 300 601 257.2 601C214.3 601 171.7 601 128.8 601C86 601 43 601 21.5 601L0 601Z" fill="#ff9656"></path><path d="M0 547L21.5 541.7C43 536.3 86 525.7 128.8 526C171.7 526.3 214.3 537.7 257.2 536.2C300 534.7 343 520.3 385.8 514.2C428.7 508 471.3 510 514.2 511.7C557 513.3 600 514.7 642.8 515.8C685.7 517 728.3 518 771.2 524.3C814 530.7 857 542.3 878.5 548.2L900 554L900 601L878.5 601C857 601 814 601 771.2 601C728.3 601 685.7 601 642.8 601C600 601 557 601 514.2 601C471.3 601 428.7 601 385.8 601C343 601 300 601 257.2 601C214.3 601 171.7 601 128.8 601C86 601 43 601 21.5 601L0 601Z" fill="#fe835e"></path><path d="M0 563L21.5 563.8C43 564.7 86 566.3 128.8 568C171.7 569.7 214.3 571.3 257.2 568.7C300 566 343 559 385.8 555.5C428.7 552 471.3 552 514.2 556.5C557 561 600 570 642.8 568.8C685.7 567.7 728.3 556.3 771.2 553.7C814 551 857 557 878.5 560L900 563L900 601L878.5 601C857 601 814 601 771.2 601C728.3 601 685.7 601 642.8 601C600 601 557 601 514.2 601C471.3 601 428.7 601 385.8 601C343 601 300 601 257.2 601C214.3 601 171.7 601 128.8 601C86 601 43 601 21.5 601L0 601Z" fill="#fa7268"></path></svg>