<svg id="visual" viewBox="0 0 900 600" width="900" height="600" xmlns="http://www.w3.org/2000/svg" xmlns:xlink="http://www.w3.org/1999/xlink" version="1.1"><rect x="0" y="0" width="900" height="600" fill="#001220"></rect><path d="M0 485L21.5 478.3C43 471.7 86 458.3 128.8 457.5C171.7 456.7 214.3 468.3 257.2 464.2C300 460 343 440 385.8 428.7C428.7 417.3 471.3 414.7 514.2 420.2C557 425.7 600 439.3 642.8 447.5C685.7 455.7 728.3 458.3 771.2 453.5C814 448.7 857 436.3 878.5 430.2L900 424L900 601L878.5 601C857 601 814 601 771.2 601C728.3 601 685.7 601 642.8 601C600 601 557 601 514.2 601C471.3 601 428.7 601 385.8 601C343 601 300 601 257.2 601C214.3 601 171.7 601 128.8 601C86 601 43 601 21.5 601L0 601Z" fill="#f9bc50"></path><path d="M0 470L21.5 470.3C43 470.7 86 471.3 128.8 469.8C171.7 468.3 214.3 464.7 257.2 470.5C300 476.3 343 491.7 385.8 497.2C428.7 502.7 471.3 498.3 514.2 488.3C557 478.3 600 462.7 642.8 465C685.7 467.3 728.3 487.7 771.2 493C814 498.3 857 488.7 878.5 483.8L900 479L900 601L878.5 601C857 601 814 601 771.2 601C728.3 601 685.7 601 642.8 601C600 601 557 601 514.2 601C471.3 601 428.7 601 385.8 601C343 601 300 601 257.2 601C214.3 601 171.7 601 128.8 601C86 601 43 601 21.5 601L0 601Z" fill="#fea951"></path><path d="M0 473L21.5 474C43 475 86 477 128.8 480.2C171.7 483.3 214.3 487.7 257.2 496.7C300 505.7 343 519.3 385.8 521.2C428.7 523 471.3 513 514.2 508.8C557 504.7 600 506.3 642.8 504.8C685.7 503.3 728.3 498.7 771.2 495.8C814 493 857 492 878.5 491.5L900 491L900 601L878.5 601C857 601 814 601 771.2 601C728.3 601 685.7 601 642.8 601C600 601 557 601 514.2 601C471.3 601 428.7 601 385.8 601C343 601 300 601 257.2 601C214.3 601 171.7 601 128.8 601C86 601 43 601 21.5 601L0 601Z" fill="#ff9656"></path><path d="M0 548L21.5 544.8C43 541.7 86 535.3 128.8 530.2C171.7 525 214.3 521 257.2 517.7C300 514.3 343 511.7 385.8 512.8C428.7 514 471.3 519 514.2 523.2C557 527.3 600 530.7 642.8 534.7C685.7 538.7 728.3 543.3 771.2 545C814 546.7 857 545.3 878.5 544.7L900 544L900 601L878.5 601C857 601 814 601 771.2 601C728.3 601 685.7 601 642.8 601C600 601 557 601 514.2 601C471.3 601 428.7 601 385.8 601C343 601 300 601 257.2 601C214.3 601 171.7 601 128.8 601C86 601 43 601 21.5 601L0 601Z" fill="#fe835e"></path><path d="M0 551L21.5 552.3C43 553.7 86 556.3 128.8 556.5C171.7 556.7 214.3 554.3 257.2 553.5C300 552.7 343 553.3 385.8 555.7C428.7 558 471.3 562 514.2 562.8C557 563.7 600 561.3 642.8 559.5C685.7 557.7 728.3 556.3 771.2 555.8C814 555.3 857 555.7 878.5 555.8L900 556L900 601L878.5 601C857 601 814 601 771.2 601C728.3 601 685.7 601 642.8 601C600 601 557 601 514.2 601C471.3 601 428.7 601 385.8 601C343 601 300 601 257.2 601C214.3 601 171.7 601 128.8 601C86 601 43 601 21.5 601L0 601Z" fill="#fa7268"></path></svg>